<?xml version="1.0" encoding="utf-8"?>
<!-- Generator: Adobe Illustrator 23.0.2, SVG Export Plug-In . SVG Version: 6.00 Build 0)  -->
<svg version="1.1" xmlns="http://www.w3.org/2000/svg" xmlns:xlink="http://www.w3.org/1999/xlink" x="0px" y="0px"
	 viewBox="0 0 796.37 522.49" style="enable-background:new 0 0 796.37 522.49;" xml:space="preserve">
<style type="text/css">
	.st0{fill:#BCBEC0;}
	.st1{font-family:'Comfortaa-Regular';}
	.st2{font-size:141.943px;}
	.st3{fill:#A7A9AC;}
	.st4{fill:#898989;}
	.st5{display:none;}
	.st6{display:inline;fill:#A7A9AC;}
</style>
<g id="Layer_1">
	<text transform="matrix(1 0 0 1 72.7967 409.8223)"><tspan x="0" y="0" class="st0 st1 st2">cup</tspan><tspan x="281.04" y="0" class="st3 st1 st2">code</tspan></text>
	<g>
		<g>
			<path class="st0" d="M249.69,108.14L249.69,108.14c-8.86-0.02-17.71-0.05-26.57-0.07c18.51,91.7,68.12,161.05,132.16,174.18
				c20.04,4.11,36.69,1.73,44.97,0.05c99.21-20.1,131.41-166.78,132.68-172.96c-3.7-0.03-7.41-0.04-11.14-0.05
				c-4.98-0.01-9.93,0.01-14.84,0.04c-1.16,4.75-2.94,11.68-5.4,19.95c-6.32,21.25-12.25,41.29-25.41,63.1
				c-4.31,7.14-11.65,19.13-24.49,32.11c-8.82,8.92-20.3,20.53-37.35,27.71c-31.26,13.18-61.87,3.33-69.08,0.78
				c-35.38-12.49-53.05-41.81-64.94-61.55c-13.16-21.85-20.6-46.91-23.95-57.87C253.18,123.21,251.06,114.41,249.69,108.14z"/>
			<path class="st3" d="M261.75,125.42c4.89,25.42,13.83,44.45,20.53,56.39c22.17,39.52,52.55,59.69,65.21,64.07
				c15.54,5.38,30.61,5.13,30.61,5.13s13.98-0.23,28.47-5.41c10.57-3.78,51.91-27.51,76.23-82.58c4.36-9.87,10.02-24.94,13.54-44.5
				c-10.24-0.88-24.26-1.72-40.93-1.59c-13.89,0.1-25.01,0.81-33.47,1.52c-37.83,3.2-53.72,9.53-88.36,11.26
				C305.54,131.1,281.13,128.68,261.75,125.42z"/>
			<path class="st4" d="M261.75,125.42c4.89,25.42,13.83,44.45,20.53,56.39c22.17,39.52,52.55,59.69,65.21,64.07
				c15.54,5.38,30.61,5.13,30.61,5.13s13.98-0.23,28.47-5.41c10.24-3.66,51.79-27.24,76.23-82.58c4.36-9.87,10.02-24.94,13.54-44.5
				c-4.68,4.45-12.41,10.72-23.32,14.98c-10.88,4.25-20.4,4.74-30.48,4.7c-40.61-0.19-102.57-8.28-111.53-8.37
				c-10.37-0.1-12.59,0.29-20.62,0.21c-8.47-0.08-14.74-0.6-20.16-1.05C282.32,128.34,272.69,127.26,261.75,125.42z"/>
		</g>
		<g>
			<path class="st0" d="M570.05,121.17c2.61,3.62,3.62,7.62,3.04,12.03c-0.58,4.41-2.59,7.98-6.03,10.7
				c-3.44,2.73-7.37,3.79-11.78,3.21c-4.41-0.58-8.02-2.64-10.82-6.19c-2.8-3.54-3.91-7.52-3.33-11.93
				c0.6-4.59,2.67-8.24,6.21-10.96c3.53-2.71,7.6-3.76,12.19-3.16C563.93,115.46,567.44,117.56,570.05,121.17z M569.31,180.01
				c2.83,4.76,3.74,11,2.72,18.72c-0.89,6.79-3.13,13.83-6.7,21.12c-3.58,7.28-7.76,13.18-12.56,17.69
				c-4.8,4.51-9.22,6.49-13.26,5.96c-3.86-0.51-5.54-2.6-5.06-6.27c0.22-1.65,0.8-3.22,1.74-4.68c0.94-1.46,2.37-3.1,4.29-4.9
				c2.2-2.51,3.89-4.72,5.08-6.62c1.18-1.9,1.95-4.14,2.29-6.71c0.39-2.94,0.16-5.49-0.67-7.66c-0.84-2.17-2.19-4.68-4.05-7.54
				c-1.87-2.86-3.19-5.28-3.95-7.25c-0.77-1.97-0.97-4.33-0.61-7.09c0.6-4.59,2.6-8.07,6-10.42c3.39-2.36,7.39-3.23,11.98-2.63
				C562.21,172.49,566.48,175.25,569.31,180.01z"/>
		</g>
	</g>
</g>
<g id="Layer_2" class="st5">
	<path class="st6" d="M60.03,128.3c-10.59,0-21.17,0-31.76,0c37.04,143.91,67.01,158.99,80.01,160.01c3.36,0.26,15.57,0.32,40,0.44
		c6.71,0.03,14.38,0.05,40.01,0c26.73-0.05,40.1-0.08,40.49-0.11c18.19-1.31,45.54-28.4,79.51-160.33c-10.4,0-20.8,0-31.21,0
		c-1.42,10-3.97,23.71-8.87,39.51c-3.88,12.48-8.13,26.18-16.59,40.49c-6.95,11.76-26.22,44.24-63.47,53.27
		c-3.43,0.83-19.7,4.54-39.86-0.02c-42.49-9.62-63.11-47.13-66.74-54.09c-5.6-10.73-8.26-20.61-13.27-39.16
		C63.88,152.03,61.45,138.16,60.03,128.3z"/>
	<path class="st6" d="M68.27,128.3c5.98,62.72,37.57,111.09,80.01,121.93c17.77,4.54,33.02,1.36,40.01-0.58
		c42.65-11.83,73.71-59.9,80-121.35c-14.39-3.08-35.73-5.63-59.8,0c-28.78,6.73-38.27,19.72-60.35,24.01
		C130.71,155.69,104.62,153.82,68.27,128.3z"/>
	<path class="st6" d="M60.03,128.3c-10.59,0-21.17,0-31.76,0c37.04,143.91,67.01,158.99,80.01,160.01c3.36,0.26,15.57,0.32,40,0.44
		c6.71,0.03,14.38,0.05,40.01,0c26.73-0.05,40.1-0.08,40.49-0.11c18.19-1.31,45.54-28.4,79.51-160.33c-10.4,0-20.8,0-31.21,0
		c-1.42,10-3.97,23.71-8.87,39.51c-3.88,12.48-8.13,26.18-16.59,40.49c-6.95,11.76-26.22,44.24-63.47,53.27
		c-3.43,0.83-19.7,4.54-39.86-0.02c-42.49-9.62-63.11-47.13-66.74-54.09c-5.6-10.73-8.26-20.61-13.27-39.16
		C63.88,152.03,61.45,138.16,60.03,128.3z"/>
	<path class="st6" d="M68.27,128.3c5.98,62.72,37.57,111.09,80.01,121.93c17.77,4.54,33.02,1.36,40.01-0.58
		c42.65-11.83,73.71-59.9,80-121.35c-14.39-3.08-35.73-5.63-59.8,0c-28.78,6.73-38.27,19.72-60.35,24.01
		C130.71,155.69,104.62,153.82,68.27,128.3z"/>
</g>
</svg>
